<?xml version="1.0" standalone="no"?><!DOCTYPE svg PUBLIC "-//W3C//DTD SVG 1.1//EN" "http://www.w3.org/Graphics/SVG/1.1/DTD/svg11.dtd"><svg xmlns:xlink="http://www.w3.org/1999/xlink" xmlns="http://www.w3.org/2000/svg" version="1.1" width="200" height="200" viewBox="0 0 200 200"><defs><style type="text/css"><![CDATA[
@font-face {
  font-family: "ifont";
  src: url("//at.alicdn.com/t/font_1442373896_4754455.eot?#iefix") format("embedded-opentype"), url("//at.alicdn.com/t/font_1442373896_4754455.woff") format("woff"), url("//at.alicdn.com/t/font_1442373896_4754455.ttf") format("truetype"), url("//at.alicdn.com/t/font_1442373896_4754455.svg#ifont") format("svg");
}

]]></style></defs><g class="transform-group"><g transform="scale(0.1953125, 0.1953125)"><path d="M1017.344 151.744c0-1.024 0-1.984-0.128-3.008-0.064-0.512-0.064-1.024-0.192-1.536-0.064-0.32-0.192-0.576-0.256-0.896-0.064-0.192 0-0.384-0.064-0.576-0.192-0.704-0.768-1.216-1.024-1.856-0.256-0.576-0.256-1.28-0.576-1.856-0.128-0.256-0.384-0.384-0.576-0.64-0.256-0.448-0.512-0.896-0.832-1.344-0.128-0.128-0.128-0.32-0.256-0.512-0.128-0.128-0.32-0.192-0.384-0.32-0.576-0.704-1.28-1.216-1.92-1.792-0.704-0.64-1.344-1.344-2.112-1.92-0.256-0.192-0.384-0.448-0.64-0.64-0.192-0.128-0.384-0.128-0.512-0.192-0.256-0.128-0.512-0.32-0.768-0.448-0.768-0.384-1.6-0.576-2.432-0.896-0.896-0.32-1.792-0.704-2.752-0.96-0.512-0.128-0.96-0.32-1.472-0.384-0.256-0.064-0.512-0.064-0.768-0.128-0.832-0.064-1.664 0.128-2.496 0.128-1.024 0-1.984 0-2.944 0.128-0.512 0.064-0.96 0.064-1.408 0.192-0.32 0.064-0.64 0.192-1.024 0.32-0.128 0.064-0.32 0-0.448 0.064L20.352 441.984C19.776 442.176 19.456 442.56 18.944 442.816 17.6 443.328 16.448 443.968 15.296 444.8 14.144 445.568 13.12 446.336 12.16 447.296 11.776 447.744 11.264 447.936 10.88 448.384 10.432 448.896 10.304 449.6 9.92 450.176 9.152 451.328 8.448 452.544 7.936 453.888 7.488 455.04 7.168 456.192 6.912 457.408c-0.256 1.28-0.384 2.496-0.384 3.84 0 1.344 0.192 2.688 0.448 4.032 0.128 0.704 0 1.408 0.256 2.112 0.128 0.384 0.512 0.512 0.64 0.896 1.216 3.2 2.88 6.208 5.696 8.512l159.296 131.968c0 0 16.128 16.384 40.448 2.368 17.856-10.304 555.648-309.056 555.648-309.056l-464.512 357.312 0 232.768 74.176-101.312-59.712-86.976 208.448 177.408c0.384 0.32 0.896 0.448 1.344 0.768 0.32 0.256 0.512 0.64 0.896 0.896 0.384 0.256 0.832 0.128 1.216 0.32 3.072 1.728 6.336 2.816 9.728 2.816 3.136 0 6.144-0.832 8.96-2.24C550.4 883.392 551.04 882.56 551.872 881.984c1.408-0.96 2.88-1.728 4.032-3.072 0.384-0.448 0.448-0.96 0.768-1.408 0.256-0.32 0.64-0.448 0.832-0.768l456.896-713.92c0.128-0.192 0.128-0.32 0.192-0.512 0.192-0.256 0.32-0.512 0.512-0.768 0.384-0.704 0.512-1.536 0.832-2.304 0.384-0.96 0.768-1.856 1.024-2.88 0.128-0.512 0.32-0.96 0.384-1.472 0.064-0.256 0.064-0.448 0.128-0.704C1017.536 153.344 1017.344 152.576 1017.344 151.744z" fill="#272636"></path></g></g></svg>